<mxfile host="app.diagrams.net" modified="2022-12-27T04:05:32.051Z" agent="5.0 (Windows)" etag="43A_RnPyaMtAE-_gnzCs" version="20.6.2" type="github">
  <diagram name="Page-1" id="64c3da0e-402f-94eb-ee01-a36477274f13">
    <mxGraphModel dx="2004" dy="1040" grid="1" gridSize="10" guides="1" tooltips="1" connect="1" arrows="1" fold="1" page="1" pageScale="1" pageWidth="1169" pageHeight="826" background="none" math="0" shadow="0">
      <root>
        <mxCell id="0" />
        <mxCell id="1" parent="0" />
        <mxCell id="2" value="Library Management System" style="whiteSpace=wrap;rounded=1;shadow=1;fillColor=#10739E;strokeColor=none;fontColor=#FFFFFF;fontStyle=1;fontSize=24" parent="1" vertex="1">
          <mxGeometry x="990" y="50" width="380" height="60" as="geometry" />
        </mxCell>
        <mxCell id="3" value="Login System" style="whiteSpace=wrap;rounded=1;fillColor=#F2931E;strokeColor=none;shadow=1;fontColor=#FFFFFF;fontStyle=1;fontSize=14" parent="1" vertex="1">
          <mxGeometry x="160" y="169.9999999999998" width="140" height="60" as="geometry" />
        </mxCell>
        <mxCell id="4" value="Member Registration" style="whiteSpace=wrap;rounded=1;fillColor=#F2931E;strokeColor=none;shadow=1;fontColor=#FFFFFF;fontStyle=1;fontSize=14" parent="1" vertex="1">
          <mxGeometry x="530" y="169.9999999999998" width="140" height="60" as="geometry" />
        </mxCell>
        <mxCell id="5" value="Generate Reports" style="whiteSpace=wrap;rounded=1;fillColor=#F2931E;strokeColor=none;shadow=1;fontColor=#FFFFFF;fontStyle=1;fontSize=14" parent="1" vertex="1">
          <mxGeometry x="2010" y="169.9999999999998" width="140" height="60" as="geometry" />
        </mxCell>
        <mxCell id="6" value="Book Registration" style="whiteSpace=wrap;rounded=1;fillColor=#F2931E;strokeColor=none;shadow=1;fontColor=#FFFFFF;fontStyle=1;fontSize=14" parent="1" vertex="1">
          <mxGeometry x="900" y="169.9999999999998" width="140" height="60" as="geometry" />
        </mxCell>
        <mxCell id="7" value="Manage Book Borrows" style="whiteSpace=wrap;rounded=1;fillColor=#F2931E;strokeColor=none;shadow=1;fontColor=#FFFFFF;fontStyle=1;fontSize=14" parent="1" vertex="1">
          <mxGeometry x="1270" y="169.9999999999998" width="140" height="60" as="geometry" />
        </mxCell>
        <mxCell id="8" value="Payment System" style="whiteSpace=wrap;rounded=1;fillColor=#F2931E;strokeColor=none;shadow=1;fontColor=#FFFFFF;fontStyle=1;fontSize=14" parent="1" vertex="1">
          <mxGeometry x="1640" y="169.9999999999998" width="140" height="60" as="geometry" />
        </mxCell>
        <mxCell id="10" value="Establish Requirements" style="whiteSpace=wrap;rounded=1;fillColor=#12AAB5;strokeColor=none;shadow=1;fontColor=#FFFFFF;" parent="1" vertex="1">
          <mxGeometry x="130" y="280.0000000000001" width="120" height="60" as="geometry" />
        </mxCell>
        <mxCell id="111" value="" style="edgeStyle=elbowEdgeStyle;elbow=horizontal;rounded=0;fontColor=#000000;endArrow=none;endFill=0;strokeWidth=8;strokeColor=#23445D;exitX=0;exitY=0.5;exitDx=0;exitDy=0;entryX=0;entryY=0.5;entryDx=0;entryDy=0;" parent="1" target="10" edge="1" source="3">
          <mxGeometry width="100" height="100" relative="1" as="geometry">
            <mxPoint x="150" y="200" as="sourcePoint" />
            <mxPoint x="99.99999999999955" y="310" as="targetPoint" />
            <Array as="points">
              <mxPoint x="80" y="260" />
            </Array>
          </mxGeometry>
        </mxCell>
        <mxCell id="229" value="" style="edgeStyle=elbowEdgeStyle;elbow=vertical;rounded=0;fontColor=#000000;endArrow=none;endFill=0;strokeWidth=8;strokeColor=#23445D;" parent="1" source="2" target="3" edge="1">
          <mxGeometry width="100" height="100" relative="1" as="geometry">
            <mxPoint x="540" y="140" as="sourcePoint" />
            <mxPoint x="640" y="40" as="targetPoint" />
          </mxGeometry>
        </mxCell>
        <mxCell id="230" value="" style="edgeStyle=elbowEdgeStyle;elbow=vertical;rounded=0;fontColor=#000000;endArrow=none;endFill=0;strokeWidth=8;strokeColor=#23445D;" parent="1" source="2" target="4" edge="1">
          <mxGeometry width="100" height="100" relative="1" as="geometry">
            <mxPoint x="550" y="150" as="sourcePoint" />
            <mxPoint x="650" y="50" as="targetPoint" />
          </mxGeometry>
        </mxCell>
        <mxCell id="231" value="" style="edgeStyle=elbowEdgeStyle;elbow=vertical;rounded=0;fontColor=#000000;endArrow=none;endFill=0;strokeWidth=8;strokeColor=#23445D;" parent="1" source="2" target="6" edge="1">
          <mxGeometry width="100" height="100" relative="1" as="geometry">
            <mxPoint x="560" y="160" as="sourcePoint" />
            <mxPoint x="660" y="60" as="targetPoint" />
          </mxGeometry>
        </mxCell>
        <mxCell id="232" value="" style="edgeStyle=elbowEdgeStyle;elbow=vertical;rounded=0;fontColor=#000000;endArrow=none;endFill=0;strokeWidth=8;strokeColor=#23445D;" parent="1" source="2" target="7" edge="1">
          <mxGeometry width="100" height="100" relative="1" as="geometry">
            <mxPoint x="570" y="170" as="sourcePoint" />
            <mxPoint x="670" y="70" as="targetPoint" />
          </mxGeometry>
        </mxCell>
        <mxCell id="233" value="" style="edgeStyle=elbowEdgeStyle;elbow=vertical;rounded=0;fontColor=#000000;endArrow=none;endFill=0;strokeWidth=8;strokeColor=#23445D;" parent="1" source="2" target="8" edge="1">
          <mxGeometry width="100" height="100" relative="1" as="geometry">
            <mxPoint x="580" y="180" as="sourcePoint" />
            <mxPoint x="680" y="80" as="targetPoint" />
          </mxGeometry>
        </mxCell>
        <mxCell id="234" value="" style="edgeStyle=elbowEdgeStyle;elbow=vertical;rounded=0;fontColor=#000000;endArrow=none;endFill=0;strokeWidth=8;strokeColor=#23445D;" parent="1" source="2" target="5" edge="1">
          <mxGeometry width="100" height="100" relative="1" as="geometry">
            <mxPoint x="590" y="190" as="sourcePoint" />
            <mxPoint x="690" y="90" as="targetPoint" />
          </mxGeometry>
        </mxCell>
        <mxCell id="SV8v0s03v5Jsf1kTegWQ-235" value="Design" style="whiteSpace=wrap;rounded=1;fillColor=#12AAB5;strokeColor=none;shadow=1;fontColor=#FFFFFF;" vertex="1" parent="1">
          <mxGeometry x="130" y="370.0000000000001" width="120" height="60" as="geometry" />
        </mxCell>
        <mxCell id="SV8v0s03v5Jsf1kTegWQ-238" value="" style="edgeStyle=elbowEdgeStyle;elbow=horizontal;rounded=0;fontColor=#000000;endArrow=none;endFill=0;strokeWidth=8;strokeColor=#23445D;entryX=0;entryY=0.5;entryDx=0;entryDy=0;exitX=0;exitY=0.5;exitDx=0;exitDy=0;" edge="1" parent="1" source="3" target="SV8v0s03v5Jsf1kTegWQ-235">
          <mxGeometry width="100" height="100" relative="1" as="geometry">
            <mxPoint x="80" y="310" as="sourcePoint" />
            <mxPoint x="120" y="508.0000000000001" as="targetPoint" />
            <Array as="points">
              <mxPoint x="80" y="400" />
            </Array>
          </mxGeometry>
        </mxCell>
        <mxCell id="SV8v0s03v5Jsf1kTegWQ-239" value="Develop" style="whiteSpace=wrap;rounded=1;fillColor=#12AAB5;strokeColor=none;shadow=1;fontColor=#FFFFFF;" vertex="1" parent="1">
          <mxGeometry x="130" y="460.0000000000001" width="120" height="60" as="geometry" />
        </mxCell>
        <mxCell id="SV8v0s03v5Jsf1kTegWQ-240" value="Test" style="whiteSpace=wrap;rounded=1;fillColor=#12AAB5;strokeColor=none;shadow=1;fontColor=#FFFFFF;" vertex="1" parent="1">
          <mxGeometry x="130" y="550.0000000000001" width="120" height="60" as="geometry" />
        </mxCell>
        <mxCell id="SV8v0s03v5Jsf1kTegWQ-241" value="Deploy" style="whiteSpace=wrap;rounded=1;fillColor=#12AAB5;strokeColor=none;shadow=1;fontColor=#FFFFFF;" vertex="1" parent="1">
          <mxGeometry x="130" y="640.0000000000001" width="120" height="60" as="geometry" />
        </mxCell>
        <mxCell id="SV8v0s03v5Jsf1kTegWQ-244" value="" style="edgeStyle=elbowEdgeStyle;elbow=horizontal;rounded=0;fontColor=#000000;endArrow=none;endFill=0;strokeWidth=8;strokeColor=#23445D;exitX=0;exitY=0.5;exitDx=0;exitDy=0;entryX=0;entryY=0.5;entryDx=0;entryDy=0;" edge="1" parent="1" source="3" target="SV8v0s03v5Jsf1kTegWQ-239">
          <mxGeometry width="100" height="100" relative="1" as="geometry">
            <mxPoint x="160" y="289.9999999999998" as="sourcePoint" />
            <mxPoint x="100" y="490" as="targetPoint" />
            <Array as="points">
              <mxPoint x="80" y="490" />
            </Array>
          </mxGeometry>
        </mxCell>
        <mxCell id="SV8v0s03v5Jsf1kTegWQ-245" value="" style="edgeStyle=elbowEdgeStyle;elbow=horizontal;rounded=0;fontColor=#000000;endArrow=none;endFill=0;strokeWidth=8;strokeColor=#23445D;exitX=0;exitY=0.5;exitDx=0;exitDy=0;entryX=0;entryY=0.5;entryDx=0;entryDy=0;" edge="1" parent="1" source="3" target="SV8v0s03v5Jsf1kTegWQ-240">
          <mxGeometry width="100" height="100" relative="1" as="geometry">
            <mxPoint x="160" y="299.9999999999998" as="sourcePoint" />
            <mxPoint x="130" y="590.0000000000002" as="targetPoint" />
            <Array as="points">
              <mxPoint x="80" y="590" />
            </Array>
          </mxGeometry>
        </mxCell>
        <mxCell id="SV8v0s03v5Jsf1kTegWQ-246" value="" style="edgeStyle=elbowEdgeStyle;elbow=horizontal;rounded=0;fontColor=#000000;endArrow=none;endFill=0;strokeWidth=8;strokeColor=#23445D;exitX=0;exitY=0.5;exitDx=0;exitDy=0;entryX=0;entryY=0.5;entryDx=0;entryDy=0;" edge="1" parent="1" source="3" target="SV8v0s03v5Jsf1kTegWQ-241">
          <mxGeometry width="100" height="100" relative="1" as="geometry">
            <mxPoint x="160" y="289.9999999999998" as="sourcePoint" />
            <mxPoint x="100" y="700" as="targetPoint" />
            <Array as="points">
              <mxPoint x="80" y="680" />
            </Array>
          </mxGeometry>
        </mxCell>
        <mxCell id="SV8v0s03v5Jsf1kTegWQ-257" value="Establish Requirements" style="whiteSpace=wrap;rounded=1;fillColor=#12AAB5;strokeColor=none;shadow=1;fontColor=#FFFFFF;" vertex="1" parent="1">
          <mxGeometry x="500" y="280.0000000000001" width="120" height="60" as="geometry" />
        </mxCell>
        <mxCell id="SV8v0s03v5Jsf1kTegWQ-258" value="" style="edgeStyle=elbowEdgeStyle;elbow=horizontal;rounded=0;fontColor=#000000;endArrow=none;endFill=0;strokeWidth=8;strokeColor=#23445D;exitX=0;exitY=0.5;exitDx=0;exitDy=0;entryX=0;entryY=0.5;entryDx=0;entryDy=0;" edge="1" parent="1" target="SV8v0s03v5Jsf1kTegWQ-257">
          <mxGeometry width="100" height="100" relative="1" as="geometry">
            <mxPoint x="530" y="199.99999999999977" as="sourcePoint" />
            <mxPoint x="469.99999999999955" y="310" as="targetPoint" />
            <Array as="points">
              <mxPoint x="450" y="260" />
            </Array>
          </mxGeometry>
        </mxCell>
        <mxCell id="SV8v0s03v5Jsf1kTegWQ-259" value="Design" style="whiteSpace=wrap;rounded=1;fillColor=#12AAB5;strokeColor=none;shadow=1;fontColor=#FFFFFF;" vertex="1" parent="1">
          <mxGeometry x="500" y="370.0000000000001" width="120" height="60" as="geometry" />
        </mxCell>
        <mxCell id="SV8v0s03v5Jsf1kTegWQ-260" value="" style="edgeStyle=elbowEdgeStyle;elbow=horizontal;rounded=0;fontColor=#000000;endArrow=none;endFill=0;strokeWidth=8;strokeColor=#23445D;entryX=0;entryY=0.5;entryDx=0;entryDy=0;exitX=0;exitY=0.5;exitDx=0;exitDy=0;" edge="1" parent="1" target="SV8v0s03v5Jsf1kTegWQ-259">
          <mxGeometry width="100" height="100" relative="1" as="geometry">
            <mxPoint x="530" y="199.99999999999977" as="sourcePoint" />
            <mxPoint x="490" y="508.0000000000001" as="targetPoint" />
            <Array as="points">
              <mxPoint x="450" y="400" />
            </Array>
          </mxGeometry>
        </mxCell>
        <mxCell id="SV8v0s03v5Jsf1kTegWQ-261" value="Develop" style="whiteSpace=wrap;rounded=1;fillColor=#12AAB5;strokeColor=none;shadow=1;fontColor=#FFFFFF;" vertex="1" parent="1">
          <mxGeometry x="500" y="460.0000000000001" width="120" height="60" as="geometry" />
        </mxCell>
        <mxCell id="SV8v0s03v5Jsf1kTegWQ-262" value="Test" style="whiteSpace=wrap;rounded=1;fillColor=#12AAB5;strokeColor=none;shadow=1;fontColor=#FFFFFF;" vertex="1" parent="1">
          <mxGeometry x="500" y="550.0000000000001" width="120" height="60" as="geometry" />
        </mxCell>
        <mxCell id="SV8v0s03v5Jsf1kTegWQ-263" value="Deploy" style="whiteSpace=wrap;rounded=1;fillColor=#12AAB5;strokeColor=none;shadow=1;fontColor=#FFFFFF;" vertex="1" parent="1">
          <mxGeometry x="500" y="640.0000000000001" width="120" height="60" as="geometry" />
        </mxCell>
        <mxCell id="SV8v0s03v5Jsf1kTegWQ-264" value="" style="edgeStyle=elbowEdgeStyle;elbow=horizontal;rounded=0;fontColor=#000000;endArrow=none;endFill=0;strokeWidth=8;strokeColor=#23445D;exitX=0;exitY=0.5;exitDx=0;exitDy=0;entryX=0;entryY=0.5;entryDx=0;entryDy=0;" edge="1" parent="1" target="SV8v0s03v5Jsf1kTegWQ-261">
          <mxGeometry width="100" height="100" relative="1" as="geometry">
            <mxPoint x="530" y="199.99999999999977" as="sourcePoint" />
            <mxPoint x="470" y="490" as="targetPoint" />
            <Array as="points">
              <mxPoint x="450" y="490" />
            </Array>
          </mxGeometry>
        </mxCell>
        <mxCell id="SV8v0s03v5Jsf1kTegWQ-265" value="" style="edgeStyle=elbowEdgeStyle;elbow=horizontal;rounded=0;fontColor=#000000;endArrow=none;endFill=0;strokeWidth=8;strokeColor=#23445D;exitX=0;exitY=0.5;exitDx=0;exitDy=0;entryX=0;entryY=0.5;entryDx=0;entryDy=0;" edge="1" parent="1" target="SV8v0s03v5Jsf1kTegWQ-262">
          <mxGeometry width="100" height="100" relative="1" as="geometry">
            <mxPoint x="530" y="199.99999999999977" as="sourcePoint" />
            <mxPoint x="500" y="590.0000000000002" as="targetPoint" />
            <Array as="points">
              <mxPoint x="450" y="590" />
            </Array>
          </mxGeometry>
        </mxCell>
        <mxCell id="SV8v0s03v5Jsf1kTegWQ-266" value="" style="edgeStyle=elbowEdgeStyle;elbow=horizontal;rounded=0;fontColor=#000000;endArrow=none;endFill=0;strokeWidth=8;strokeColor=#23445D;entryX=0;entryY=0.5;entryDx=0;entryDy=0;exitX=0;exitY=0.5;exitDx=0;exitDy=0;" edge="1" parent="1" target="SV8v0s03v5Jsf1kTegWQ-263" source="4">
          <mxGeometry width="100" height="100" relative="1" as="geometry">
            <mxPoint x="540" y="200" as="sourcePoint" />
            <mxPoint x="470" y="700" as="targetPoint" />
            <Array as="points">
              <mxPoint x="450" y="680" />
            </Array>
          </mxGeometry>
        </mxCell>
        <mxCell id="SV8v0s03v5Jsf1kTegWQ-267" value="Establish Requirements" style="whiteSpace=wrap;rounded=1;fillColor=#12AAB5;strokeColor=none;shadow=1;fontColor=#FFFFFF;" vertex="1" parent="1">
          <mxGeometry x="870" y="280.0000000000001" width="120" height="60" as="geometry" />
        </mxCell>
        <mxCell id="SV8v0s03v5Jsf1kTegWQ-268" value="" style="edgeStyle=elbowEdgeStyle;elbow=horizontal;rounded=0;fontColor=#000000;endArrow=none;endFill=0;strokeWidth=8;strokeColor=#23445D;exitX=0;exitY=0.5;exitDx=0;exitDy=0;entryX=0;entryY=0.5;entryDx=0;entryDy=0;" edge="1" parent="1" target="SV8v0s03v5Jsf1kTegWQ-267">
          <mxGeometry width="100" height="100" relative="1" as="geometry">
            <mxPoint x="900" y="199.99999999999977" as="sourcePoint" />
            <mxPoint x="839.9999999999995" y="310" as="targetPoint" />
            <Array as="points">
              <mxPoint x="820" y="260" />
            </Array>
          </mxGeometry>
        </mxCell>
        <mxCell id="SV8v0s03v5Jsf1kTegWQ-269" value="Design" style="whiteSpace=wrap;rounded=1;fillColor=#12AAB5;strokeColor=none;shadow=1;fontColor=#FFFFFF;" vertex="1" parent="1">
          <mxGeometry x="870" y="370.0000000000001" width="120" height="60" as="geometry" />
        </mxCell>
        <mxCell id="SV8v0s03v5Jsf1kTegWQ-270" value="" style="edgeStyle=elbowEdgeStyle;elbow=horizontal;rounded=0;fontColor=#000000;endArrow=none;endFill=0;strokeWidth=8;strokeColor=#23445D;entryX=0;entryY=0.5;entryDx=0;entryDy=0;exitX=0;exitY=0.5;exitDx=0;exitDy=0;" edge="1" parent="1" target="SV8v0s03v5Jsf1kTegWQ-269">
          <mxGeometry width="100" height="100" relative="1" as="geometry">
            <mxPoint x="900" y="199.99999999999977" as="sourcePoint" />
            <mxPoint x="860" y="508.0000000000001" as="targetPoint" />
            <Array as="points">
              <mxPoint x="820" y="400" />
            </Array>
          </mxGeometry>
        </mxCell>
        <mxCell id="SV8v0s03v5Jsf1kTegWQ-271" value="Develop" style="whiteSpace=wrap;rounded=1;fillColor=#12AAB5;strokeColor=none;shadow=1;fontColor=#FFFFFF;" vertex="1" parent="1">
          <mxGeometry x="870" y="460.0000000000001" width="120" height="60" as="geometry" />
        </mxCell>
        <mxCell id="SV8v0s03v5Jsf1kTegWQ-272" value="Test" style="whiteSpace=wrap;rounded=1;fillColor=#12AAB5;strokeColor=none;shadow=1;fontColor=#FFFFFF;" vertex="1" parent="1">
          <mxGeometry x="870" y="550.0000000000001" width="120" height="60" as="geometry" />
        </mxCell>
        <mxCell id="SV8v0s03v5Jsf1kTegWQ-273" value="Deploy" style="whiteSpace=wrap;rounded=1;fillColor=#12AAB5;strokeColor=none;shadow=1;fontColor=#FFFFFF;" vertex="1" parent="1">
          <mxGeometry x="870" y="640.0000000000001" width="120" height="60" as="geometry" />
        </mxCell>
        <mxCell id="SV8v0s03v5Jsf1kTegWQ-274" value="" style="edgeStyle=elbowEdgeStyle;elbow=horizontal;rounded=0;fontColor=#000000;endArrow=none;endFill=0;strokeWidth=8;strokeColor=#23445D;exitX=0;exitY=0.5;exitDx=0;exitDy=0;entryX=0;entryY=0.5;entryDx=0;entryDy=0;" edge="1" parent="1" target="SV8v0s03v5Jsf1kTegWQ-271">
          <mxGeometry width="100" height="100" relative="1" as="geometry">
            <mxPoint x="900" y="199.99999999999977" as="sourcePoint" />
            <mxPoint x="840" y="490" as="targetPoint" />
            <Array as="points">
              <mxPoint x="820" y="490" />
            </Array>
          </mxGeometry>
        </mxCell>
        <mxCell id="SV8v0s03v5Jsf1kTegWQ-275" value="" style="edgeStyle=elbowEdgeStyle;elbow=horizontal;rounded=0;fontColor=#000000;endArrow=none;endFill=0;strokeWidth=8;strokeColor=#23445D;exitX=0;exitY=0.5;exitDx=0;exitDy=0;entryX=0;entryY=0.5;entryDx=0;entryDy=0;" edge="1" parent="1" target="SV8v0s03v5Jsf1kTegWQ-272">
          <mxGeometry width="100" height="100" relative="1" as="geometry">
            <mxPoint x="900" y="199.99999999999977" as="sourcePoint" />
            <mxPoint x="870" y="590.0000000000002" as="targetPoint" />
            <Array as="points">
              <mxPoint x="820" y="590" />
            </Array>
          </mxGeometry>
        </mxCell>
        <mxCell id="SV8v0s03v5Jsf1kTegWQ-276" value="" style="edgeStyle=elbowEdgeStyle;elbow=horizontal;rounded=0;fontColor=#000000;endArrow=none;endFill=0;strokeWidth=8;strokeColor=#23445D;entryX=0;entryY=0.5;entryDx=0;entryDy=0;exitX=0;exitY=0.5;exitDx=0;exitDy=0;" edge="1" parent="1" target="SV8v0s03v5Jsf1kTegWQ-273" source="6">
          <mxGeometry width="100" height="100" relative="1" as="geometry">
            <mxPoint x="870" y="180" as="sourcePoint" />
            <mxPoint x="840" y="700" as="targetPoint" />
            <Array as="points">
              <mxPoint x="820" y="680" />
            </Array>
          </mxGeometry>
        </mxCell>
        <mxCell id="SV8v0s03v5Jsf1kTegWQ-277" value="Establish Requirements" style="whiteSpace=wrap;rounded=1;fillColor=#12AAB5;strokeColor=none;shadow=1;fontColor=#FFFFFF;" vertex="1" parent="1">
          <mxGeometry x="1240" y="280.0000000000001" width="120" height="60" as="geometry" />
        </mxCell>
        <mxCell id="SV8v0s03v5Jsf1kTegWQ-278" value="" style="edgeStyle=elbowEdgeStyle;elbow=horizontal;rounded=0;fontColor=#000000;endArrow=none;endFill=0;strokeWidth=8;strokeColor=#23445D;exitX=0;exitY=0.5;exitDx=0;exitDy=0;entryX=0;entryY=0.5;entryDx=0;entryDy=0;" edge="1" parent="1" target="SV8v0s03v5Jsf1kTegWQ-277">
          <mxGeometry width="100" height="100" relative="1" as="geometry">
            <mxPoint x="1270" y="199.99999999999977" as="sourcePoint" />
            <mxPoint x="1209.9999999999995" y="310" as="targetPoint" />
            <Array as="points">
              <mxPoint x="1190" y="260" />
            </Array>
          </mxGeometry>
        </mxCell>
        <mxCell id="SV8v0s03v5Jsf1kTegWQ-279" value="Design" style="whiteSpace=wrap;rounded=1;fillColor=#12AAB5;strokeColor=none;shadow=1;fontColor=#FFFFFF;" vertex="1" parent="1">
          <mxGeometry x="1240" y="370.0000000000001" width="120" height="60" as="geometry" />
        </mxCell>
        <mxCell id="SV8v0s03v5Jsf1kTegWQ-280" value="" style="edgeStyle=elbowEdgeStyle;elbow=horizontal;rounded=0;fontColor=#000000;endArrow=none;endFill=0;strokeWidth=8;strokeColor=#23445D;entryX=0;entryY=0.5;entryDx=0;entryDy=0;exitX=0;exitY=0.5;exitDx=0;exitDy=0;" edge="1" parent="1" target="SV8v0s03v5Jsf1kTegWQ-279">
          <mxGeometry width="100" height="100" relative="1" as="geometry">
            <mxPoint x="1270" y="199.99999999999977" as="sourcePoint" />
            <mxPoint x="1230" y="508.0000000000001" as="targetPoint" />
            <Array as="points">
              <mxPoint x="1190" y="400" />
            </Array>
          </mxGeometry>
        </mxCell>
        <mxCell id="SV8v0s03v5Jsf1kTegWQ-281" value="Develop" style="whiteSpace=wrap;rounded=1;fillColor=#12AAB5;strokeColor=none;shadow=1;fontColor=#FFFFFF;" vertex="1" parent="1">
          <mxGeometry x="1240" y="460.0000000000001" width="120" height="60" as="geometry" />
        </mxCell>
        <mxCell id="SV8v0s03v5Jsf1kTegWQ-282" value="Test" style="whiteSpace=wrap;rounded=1;fillColor=#12AAB5;strokeColor=none;shadow=1;fontColor=#FFFFFF;" vertex="1" parent="1">
          <mxGeometry x="1240" y="550.0000000000001" width="120" height="60" as="geometry" />
        </mxCell>
        <mxCell id="SV8v0s03v5Jsf1kTegWQ-283" value="Deploy" style="whiteSpace=wrap;rounded=1;fillColor=#12AAB5;strokeColor=none;shadow=1;fontColor=#FFFFFF;" vertex="1" parent="1">
          <mxGeometry x="1240" y="640.0000000000001" width="120" height="60" as="geometry" />
        </mxCell>
        <mxCell id="SV8v0s03v5Jsf1kTegWQ-284" value="" style="edgeStyle=elbowEdgeStyle;elbow=horizontal;rounded=0;fontColor=#000000;endArrow=none;endFill=0;strokeWidth=8;strokeColor=#23445D;exitX=0;exitY=0.5;exitDx=0;exitDy=0;entryX=0;entryY=0.5;entryDx=0;entryDy=0;" edge="1" parent="1" target="SV8v0s03v5Jsf1kTegWQ-281">
          <mxGeometry width="100" height="100" relative="1" as="geometry">
            <mxPoint x="1270" y="199.99999999999977" as="sourcePoint" />
            <mxPoint x="1210" y="490" as="targetPoint" />
            <Array as="points">
              <mxPoint x="1190" y="490" />
            </Array>
          </mxGeometry>
        </mxCell>
        <mxCell id="SV8v0s03v5Jsf1kTegWQ-285" value="" style="edgeStyle=elbowEdgeStyle;elbow=horizontal;rounded=0;fontColor=#000000;endArrow=none;endFill=0;strokeWidth=8;strokeColor=#23445D;exitX=0;exitY=0.5;exitDx=0;exitDy=0;entryX=0;entryY=0.5;entryDx=0;entryDy=0;" edge="1" parent="1" target="SV8v0s03v5Jsf1kTegWQ-282">
          <mxGeometry width="100" height="100" relative="1" as="geometry">
            <mxPoint x="1270" y="199.99999999999977" as="sourcePoint" />
            <mxPoint x="1240" y="590.0000000000002" as="targetPoint" />
            <Array as="points">
              <mxPoint x="1190" y="590" />
            </Array>
          </mxGeometry>
        </mxCell>
        <mxCell id="SV8v0s03v5Jsf1kTegWQ-286" value="" style="edgeStyle=elbowEdgeStyle;elbow=horizontal;rounded=0;fontColor=#000000;endArrow=none;endFill=0;strokeWidth=8;strokeColor=#23445D;exitX=0;exitY=0.5;exitDx=0;exitDy=0;entryX=0;entryY=0.5;entryDx=0;entryDy=0;" edge="1" parent="1" target="SV8v0s03v5Jsf1kTegWQ-283">
          <mxGeometry width="100" height="100" relative="1" as="geometry">
            <mxPoint x="1270" y="199.99999999999977" as="sourcePoint" />
            <mxPoint x="1210" y="700" as="targetPoint" />
            <Array as="points">
              <mxPoint x="1190" y="680" />
            </Array>
          </mxGeometry>
        </mxCell>
        <mxCell id="SV8v0s03v5Jsf1kTegWQ-287" value="Establish Requirements" style="whiteSpace=wrap;rounded=1;fillColor=#12AAB5;strokeColor=none;shadow=1;fontColor=#FFFFFF;" vertex="1" parent="1">
          <mxGeometry x="1610" y="280.0000000000001" width="120" height="60" as="geometry" />
        </mxCell>
        <mxCell id="SV8v0s03v5Jsf1kTegWQ-288" value="" style="edgeStyle=elbowEdgeStyle;elbow=horizontal;rounded=0;fontColor=#000000;endArrow=none;endFill=0;strokeWidth=8;strokeColor=#23445D;exitX=0;exitY=0.5;exitDx=0;exitDy=0;entryX=0;entryY=0.5;entryDx=0;entryDy=0;" edge="1" parent="1" target="SV8v0s03v5Jsf1kTegWQ-287">
          <mxGeometry width="100" height="100" relative="1" as="geometry">
            <mxPoint x="1640" y="199.99999999999977" as="sourcePoint" />
            <mxPoint x="1579.9999999999995" y="310" as="targetPoint" />
            <Array as="points">
              <mxPoint x="1560" y="260" />
            </Array>
          </mxGeometry>
        </mxCell>
        <mxCell id="SV8v0s03v5Jsf1kTegWQ-289" value="Design" style="whiteSpace=wrap;rounded=1;fillColor=#12AAB5;strokeColor=none;shadow=1;fontColor=#FFFFFF;" vertex="1" parent="1">
          <mxGeometry x="1610" y="370.0000000000001" width="120" height="60" as="geometry" />
        </mxCell>
        <mxCell id="SV8v0s03v5Jsf1kTegWQ-290" value="" style="edgeStyle=elbowEdgeStyle;elbow=horizontal;rounded=0;fontColor=#000000;endArrow=none;endFill=0;strokeWidth=8;strokeColor=#23445D;entryX=0;entryY=0.5;entryDx=0;entryDy=0;exitX=0;exitY=0.5;exitDx=0;exitDy=0;" edge="1" parent="1" target="SV8v0s03v5Jsf1kTegWQ-289">
          <mxGeometry width="100" height="100" relative="1" as="geometry">
            <mxPoint x="1640" y="199.99999999999977" as="sourcePoint" />
            <mxPoint x="1600" y="508.0000000000001" as="targetPoint" />
            <Array as="points">
              <mxPoint x="1560" y="400" />
            </Array>
          </mxGeometry>
        </mxCell>
        <mxCell id="SV8v0s03v5Jsf1kTegWQ-291" value="Develop" style="whiteSpace=wrap;rounded=1;fillColor=#12AAB5;strokeColor=none;shadow=1;fontColor=#FFFFFF;" vertex="1" parent="1">
          <mxGeometry x="1610" y="460.0000000000001" width="120" height="60" as="geometry" />
        </mxCell>
        <mxCell id="SV8v0s03v5Jsf1kTegWQ-292" value="Test" style="whiteSpace=wrap;rounded=1;fillColor=#12AAB5;strokeColor=none;shadow=1;fontColor=#FFFFFF;" vertex="1" parent="1">
          <mxGeometry x="1610" y="550.0000000000001" width="120" height="60" as="geometry" />
        </mxCell>
        <mxCell id="SV8v0s03v5Jsf1kTegWQ-293" value="Deploy" style="whiteSpace=wrap;rounded=1;fillColor=#12AAB5;strokeColor=none;shadow=1;fontColor=#FFFFFF;" vertex="1" parent="1">
          <mxGeometry x="1610" y="640.0000000000001" width="120" height="60" as="geometry" />
        </mxCell>
        <mxCell id="SV8v0s03v5Jsf1kTegWQ-294" value="" style="edgeStyle=elbowEdgeStyle;elbow=horizontal;rounded=0;fontColor=#000000;endArrow=none;endFill=0;strokeWidth=8;strokeColor=#23445D;exitX=0;exitY=0.5;exitDx=0;exitDy=0;entryX=0;entryY=0.5;entryDx=0;entryDy=0;" edge="1" parent="1" target="SV8v0s03v5Jsf1kTegWQ-291">
          <mxGeometry width="100" height="100" relative="1" as="geometry">
            <mxPoint x="1640" y="199.99999999999977" as="sourcePoint" />
            <mxPoint x="1580" y="490" as="targetPoint" />
            <Array as="points">
              <mxPoint x="1560" y="490" />
            </Array>
          </mxGeometry>
        </mxCell>
        <mxCell id="SV8v0s03v5Jsf1kTegWQ-295" value="" style="edgeStyle=elbowEdgeStyle;elbow=horizontal;rounded=0;fontColor=#000000;endArrow=none;endFill=0;strokeWidth=8;strokeColor=#23445D;exitX=0;exitY=0.5;exitDx=0;exitDy=0;entryX=0;entryY=0.5;entryDx=0;entryDy=0;" edge="1" parent="1" target="SV8v0s03v5Jsf1kTegWQ-292">
          <mxGeometry width="100" height="100" relative="1" as="geometry">
            <mxPoint x="1640" y="199.99999999999977" as="sourcePoint" />
            <mxPoint x="1610" y="590.0000000000002" as="targetPoint" />
            <Array as="points">
              <mxPoint x="1560" y="590" />
            </Array>
          </mxGeometry>
        </mxCell>
        <mxCell id="SV8v0s03v5Jsf1kTegWQ-296" value="" style="edgeStyle=elbowEdgeStyle;elbow=horizontal;rounded=0;fontColor=#000000;endArrow=none;endFill=0;strokeWidth=8;strokeColor=#23445D;exitX=0;exitY=0.5;exitDx=0;exitDy=0;entryX=0;entryY=0.5;entryDx=0;entryDy=0;" edge="1" parent="1" target="SV8v0s03v5Jsf1kTegWQ-293">
          <mxGeometry width="100" height="100" relative="1" as="geometry">
            <mxPoint x="1640" y="199.99999999999977" as="sourcePoint" />
            <mxPoint x="1580" y="700" as="targetPoint" />
            <Array as="points">
              <mxPoint x="1560" y="680" />
            </Array>
          </mxGeometry>
        </mxCell>
        <mxCell id="SV8v0s03v5Jsf1kTegWQ-297" value="Establish Requirements" style="whiteSpace=wrap;rounded=1;fillColor=#12AAB5;strokeColor=none;shadow=1;fontColor=#FFFFFF;" vertex="1" parent="1">
          <mxGeometry x="1980" y="280.0000000000001" width="120" height="60" as="geometry" />
        </mxCell>
        <mxCell id="SV8v0s03v5Jsf1kTegWQ-298" value="" style="edgeStyle=elbowEdgeStyle;elbow=horizontal;rounded=0;fontColor=#000000;endArrow=none;endFill=0;strokeWidth=8;strokeColor=#23445D;exitX=0;exitY=0.5;exitDx=0;exitDy=0;entryX=0;entryY=0.5;entryDx=0;entryDy=0;" edge="1" parent="1" target="SV8v0s03v5Jsf1kTegWQ-297">
          <mxGeometry width="100" height="100" relative="1" as="geometry">
            <mxPoint x="2010" y="199.99999999999977" as="sourcePoint" />
            <mxPoint x="1949.9999999999995" y="310" as="targetPoint" />
            <Array as="points">
              <mxPoint x="1930" y="260" />
            </Array>
          </mxGeometry>
        </mxCell>
        <mxCell id="SV8v0s03v5Jsf1kTegWQ-299" value="Design" style="whiteSpace=wrap;rounded=1;fillColor=#12AAB5;strokeColor=none;shadow=1;fontColor=#FFFFFF;" vertex="1" parent="1">
          <mxGeometry x="1980" y="370.0000000000001" width="120" height="60" as="geometry" />
        </mxCell>
        <mxCell id="SV8v0s03v5Jsf1kTegWQ-300" value="" style="edgeStyle=elbowEdgeStyle;elbow=horizontal;rounded=0;fontColor=#000000;endArrow=none;endFill=0;strokeWidth=8;strokeColor=#23445D;entryX=0;entryY=0.5;entryDx=0;entryDy=0;exitX=0;exitY=0.5;exitDx=0;exitDy=0;" edge="1" parent="1" target="SV8v0s03v5Jsf1kTegWQ-299">
          <mxGeometry width="100" height="100" relative="1" as="geometry">
            <mxPoint x="2010" y="199.99999999999977" as="sourcePoint" />
            <mxPoint x="1970" y="508.0000000000001" as="targetPoint" />
            <Array as="points">
              <mxPoint x="1930" y="400" />
            </Array>
          </mxGeometry>
        </mxCell>
        <mxCell id="SV8v0s03v5Jsf1kTegWQ-301" value="Develop" style="whiteSpace=wrap;rounded=1;fillColor=#12AAB5;strokeColor=none;shadow=1;fontColor=#FFFFFF;" vertex="1" parent="1">
          <mxGeometry x="1980" y="460.0000000000001" width="120" height="60" as="geometry" />
        </mxCell>
        <mxCell id="SV8v0s03v5Jsf1kTegWQ-302" value="Test" style="whiteSpace=wrap;rounded=1;fillColor=#12AAB5;strokeColor=none;shadow=1;fontColor=#FFFFFF;" vertex="1" parent="1">
          <mxGeometry x="1980" y="550.0000000000001" width="120" height="60" as="geometry" />
        </mxCell>
        <mxCell id="SV8v0s03v5Jsf1kTegWQ-303" value="Deploy" style="whiteSpace=wrap;rounded=1;fillColor=#12AAB5;strokeColor=none;shadow=1;fontColor=#FFFFFF;" vertex="1" parent="1">
          <mxGeometry x="1980" y="640.0000000000001" width="120" height="60" as="geometry" />
        </mxCell>
        <mxCell id="SV8v0s03v5Jsf1kTegWQ-304" value="" style="edgeStyle=elbowEdgeStyle;elbow=horizontal;rounded=0;fontColor=#000000;endArrow=none;endFill=0;strokeWidth=8;strokeColor=#23445D;exitX=0;exitY=0.5;exitDx=0;exitDy=0;entryX=0;entryY=0.5;entryDx=0;entryDy=0;" edge="1" parent="1" target="SV8v0s03v5Jsf1kTegWQ-301">
          <mxGeometry width="100" height="100" relative="1" as="geometry">
            <mxPoint x="2010" y="199.99999999999977" as="sourcePoint" />
            <mxPoint x="1950" y="490" as="targetPoint" />
            <Array as="points">
              <mxPoint x="1930" y="490" />
            </Array>
          </mxGeometry>
        </mxCell>
        <mxCell id="SV8v0s03v5Jsf1kTegWQ-305" value="" style="edgeStyle=elbowEdgeStyle;elbow=horizontal;rounded=0;fontColor=#000000;endArrow=none;endFill=0;strokeWidth=8;strokeColor=#23445D;exitX=0;exitY=0.5;exitDx=0;exitDy=0;entryX=0;entryY=0.5;entryDx=0;entryDy=0;" edge="1" parent="1" target="SV8v0s03v5Jsf1kTegWQ-302">
          <mxGeometry width="100" height="100" relative="1" as="geometry">
            <mxPoint x="2010" y="199.99999999999977" as="sourcePoint" />
            <mxPoint x="1980" y="590.0000000000002" as="targetPoint" />
            <Array as="points">
              <mxPoint x="1930" y="590" />
            </Array>
          </mxGeometry>
        </mxCell>
        <mxCell id="SV8v0s03v5Jsf1kTegWQ-306" value="" style="edgeStyle=elbowEdgeStyle;elbow=horizontal;rounded=0;fontColor=#000000;endArrow=none;endFill=0;strokeWidth=8;strokeColor=#23445D;exitX=0;exitY=0.5;exitDx=0;exitDy=0;entryX=0;entryY=0.5;entryDx=0;entryDy=0;" edge="1" parent="1" target="SV8v0s03v5Jsf1kTegWQ-303">
          <mxGeometry width="100" height="100" relative="1" as="geometry">
            <mxPoint x="2010" y="199.99999999999977" as="sourcePoint" />
            <mxPoint x="1950" y="700" as="targetPoint" />
            <Array as="points">
              <mxPoint x="1930" y="680" />
            </Array>
          </mxGeometry>
        </mxCell>
      </root>
    </mxGraphModel>
  </diagram>
</mxfile>
